<svg width="20" height="21" viewBox="0 0 20 21" fill="none" xmlns="http://www.w3.org/2000/svg">
<g clip-path="url(#clip0_199_153)">
<ellipse cx="9.65182" cy="10.1564" rx="5.51461" ry="5.839" fill="white"/>
<path d="M19.1256 10.1566L16.9806 7.63499L17.3165 4.25923L14.18 3.55615L12.58 0.613281L9.65171 1.99897L6.72338 0.613281L5.12344 3.55615L1.98691 4.25923L2.32272 7.63499L0.177734 10.1566L2.32269 12.6782L1.98688 16.0539L5.1234 16.757L6.72334 19.6999L9.65167 18.3141L12.58 19.6999L14.1799 16.757L17.3165 16.0539L16.9806 12.6782L19.1256 10.1566ZM13.6234 7.96015L8.86785 13.6015L5.56326 10.1025L6.34926 9.27024L8.82194 11.8884L12.7941 7.1764L13.6234 7.96015Z" fill="#F6C73B"/>
</g>
<defs>
<clipPath id="clip0_199_153">
<rect width="18.9479" height="20.0625" fill="white" transform="translate(0.177734 0.125)"/>
</clipPath>
</defs>
</svg>
